<svg width="960" height="720" viewBox="0 0 960 720" fill="none" xmlns="http://www.w3.org/2000/svg">
  <rect width="960" height="720" rx="48" fill="#FFF6EC"/>
  <circle cx="742" cy="164" r="138" fill="#0F8C94" fill-opacity="0.14"/>
  <circle cx="170" cy="170" r="118" fill="#F05A28" fill-opacity="0.18"/>
  <rect x="104" y="126" width="752" height="468" rx="34" fill="#FFFFFF" stroke="#10233D" stroke-opacity="0.08" stroke-width="8"/>
  <rect x="160" y="192" width="282" height="282" rx="26" fill="#F7F0E8"/>
  <path d="M206 428L274 338L344 412L388 366L442 428V474H206V428Z" fill="#0F8C94" fill-opacity="0.42"/>
  <circle cx="256" cy="266" r="36" fill="#F05A28" fill-opacity="0.55"/>
  <rect x="492" y="220" width="238" height="28" rx="14" fill="#10233D" fill-opacity="0.16"/>
  <rect x="492" y="272" width="178" height="24" rx="12" fill="#10233D" fill-opacity="0.10"/>
  <rect x="492" y="344" width="292" height="78" rx="20" fill="#F05A28" fill-opacity="0.12"/>
  <rect x="492" y="456" width="116" height="48" rx="24" fill="#0F8C94" fill-opacity="0.18"/>
  <rect x="626" y="456" width="142" height="48" rx="24" fill="#10233D" fill-opacity="0.08"/>
</svg>
